<?xml version="1.0" encoding="iso-8859-1"?>
<!-- Generator: Adobe Illustrator 19.0.0, SVG Export Plug-In . SVG Version: 6.00 Build 0)  -->
<svg version="1.1" id="Capa_1" xmlns="http://www.w3.org/2000/svg" xmlns:xlink="http://www.w3.org/1999/xlink" x="0px" y="0px"
	 viewBox="-100 -100 712 712" style="enable-background:new 0 0 512 512;" xml:space="preserve">
<path style="fill:#455A64;" d="M498.219,45.803L455.552,3.136C453.551,1.129,450.834,0.001,448,0H42.667
	c-2.824,0.001-5.532,1.121-7.531,3.115L13.803,24.448c-2.007,2.001-3.135,4.718-3.136,7.552v448
	c0.001,2.824,1.121,5.532,3.115,7.531l21.333,21.333c2.001,2.007,4.718,3.135,7.552,3.136h32V224
	c0-5.891,4.776-10.667,10.667-10.667h341.333c5.891,0,10.667,4.776,10.667,10.667v288h32c2.831,0.005,5.548-1.115,7.552-3.115
	l21.333-21.333c1.999-2.004,3.12-4.721,3.115-7.552V53.333C501.333,50.51,500.213,47.802,498.219,45.803z"/>
<path style="fill:#4CAF50;" d="M469.76,469.333c-5.891,0-10.667-4.776-10.667-10.667c0-5.85,4.711-10.608,10.56-10.667h0.213
	c5.891,0,10.667,4.776,10.667,10.667c0,5.891-4.776,10.667-10.667,10.667H469.76z"/>
<path style="fill:#CFD8DC;" d="M405.333,192H106.667c-17.673,0-32,14.327-32,32v288h362.667V224
	C437.333,206.327,423.006,192,405.333,192z"/>
<path style="fill:#B0BEC5;" d="M384,0H149.333c-5.891,0-10.667,4.776-10.667,10.667v128c0,17.673,14.327,32,32,32h192
	c17.673,0,32-14.327,32-32v-128C394.667,4.776,389.891,0,384,0z"/>
<rect x="245.333" style="fill:#607D8B;" width="106.667" height="170.667"/>
<path style="fill:#4CAF50;" d="M366.699,314.539c-1.888-5.58-7.942-8.573-13.523-6.685c-0.253,0.086-0.503,0.181-0.749,0.285
	c-5.158,2.376-11.266,0.12-13.641-5.038c-2.076-4.508-0.636-9.856,3.423-12.712c4.705-3.545,5.645-10.233,2.099-14.938
	c-0.159-0.211-0.325-0.415-0.499-0.614c-16.821-19.449-39.625-32.761-64.832-37.845c-2.948-0.626-6.023,0.059-8.427,1.877
	c-2.412,1.785-3.961,4.503-4.267,7.488c-0.259,5.685-5.077,10.084-10.762,9.825c-5.322-0.242-9.582-4.502-9.825-9.825
	c-0.306-2.985-1.855-5.703-4.267-7.488c-2.408-1.808-5.479-2.492-8.427-1.877c-25.207,5.084-48.011,18.396-64.832,37.845
	c-3.884,4.429-3.443,11.168,0.986,15.053c0.198,0.174,0.403,0.341,0.614,0.499c4.645,3.268,5.761,9.682,2.493,14.327
	c-2.856,4.059-8.204,5.499-12.712,3.423c-2.716-1.208-5.817-1.208-8.533,0c-2.726,1.234-4.808,3.556-5.739,6.4
	c-8.835,24.193-8.835,50.73,0,74.923c1.888,5.58,7.942,8.573,13.523,6.685c0.253-0.086,0.503-0.181,0.749-0.285
	c5.158-2.376,11.266-0.12,13.641,5.038c2.076,4.508,0.636,9.856-3.423,12.712c-4.705,3.545-5.645,10.233-2.099,14.938
	c0.159,0.211,0.325,0.415,0.499,0.614c16.826,19.443,39.628,32.753,64.832,37.845c5.766,1.208,11.419-2.486,12.628-8.252
	c0.077-0.368,0.135-0.739,0.172-1.113c0.259-5.685,5.077-10.083,10.762-9.825c5.322,0.242,9.582,4.502,9.825,9.825
	c0.56,5.462,5.176,9.607,10.667,9.579c0.717,0.005,1.432-0.066,2.133-0.213c25.204-5.092,48.006-18.402,64.832-37.845
	c3.884-4.429,3.443-11.168-0.986-15.053c-0.198-0.174-0.403-0.341-0.614-0.499c-4.645-3.268-5.761-9.682-2.493-14.327
	c2.856-4.059,8.204-5.499,12.712-3.423c5.423,2.302,11.685-0.228,13.987-5.651c0.104-0.246,0.2-0.496,0.285-0.749
	c8.835-24.193,8.835-50.73,0-74.923H366.699z M256,405.333c-29.455,0-53.333-23.878-53.333-53.333
	c0-29.455,23.878-53.333,53.333-53.333c29.455,0,53.333,23.878,53.333,53.333C309.333,381.455,285.455,405.333,256,405.333z"/>
<g>
</g>
<g>
</g>
<g>
</g>
<g>
</g>
<g>
</g>
<g>
</g>
<g>
</g>
<g>
</g>
<g>
</g>
<g>
</g>
<g>
</g>
<g>
</g>
<g>
</g>
<g>
</g>
<g>
</g>
</svg>
