<?xml version="1.0" encoding="iso-8859-1"?>
<!-- Generator: Adobe Illustrator 19.0.0, SVG Export Plug-In . SVG Version: 6.00 Build 0)  -->
<svg version="1.1" id="Capa_1" xmlns="http://www.w3.org/2000/svg" xmlns:xlink="http://www.w3.org/1999/xlink" x="0px" y="0px"
	 viewBox="-100 -100 680 680" style="enable-background:new 0 0 480 480;" xml:space="preserve">
<rect style="fill:#46709C;" width="272" height="384"/>
<g>
	<rect x="208" y="96" style="fill:#789DC3;" width="272" height="384"/>
	<rect x="24" y="56" style="fill:#789DC3;" width="16" height="16"/>
	<rect x="56" y="56" style="fill:#789DC3;" width="112" height="16"/>
	<rect x="56" y="88" style="fill:#789DC3;" width="128" height="16"/>
	<rect x="24" y="120" style="fill:#789DC3;" width="16" height="16"/>
	<rect x="56" y="120" style="fill:#789DC3;" width="112" height="16"/>
	<rect x="56" y="152" style="fill:#789DC3;" width="128" height="16"/>
	<rect x="24" y="184" style="fill:#789DC3;" width="16" height="16"/>
	<rect x="56" y="184" style="fill:#789DC3;" width="112" height="16"/>
	<rect x="56" y="216" style="fill:#789DC3;" width="128" height="16"/>
	<rect x="24" y="248" style="fill:#789DC3;" width="16" height="16"/>
	<rect x="56" y="248" style="fill:#789DC3;" width="112" height="16"/>
	<rect x="56" y="280" style="fill:#789DC3;" width="128" height="16"/>
	<rect x="24" y="312" style="fill:#789DC3;" width="16" height="16"/>
	<rect x="56" y="312" style="fill:#789DC3;" width="112" height="16"/>
	<rect x="56" y="344" style="fill:#789DC3;" width="128" height="16"/>
</g>
<g>
	<rect x="208" y="96" style="fill:#D3D2D6;" width="272" height="32"/>
	<rect style="fill:#D3D2D6;" width="272" height="32"/>
</g>
<rect x="240" y="160" style="fill:#D94A56;" width="32" height="32"/>
<rect x="296" y="184" style="fill:#46709C;" width="160" height="16"/>
<g>
	<rect x="240" y="224" style="fill:#D94A56;" width="32" height="32"/>
	<rect x="240" y="288" style="fill:#D94A56;" width="32" height="32"/>
	<rect x="240" y="352" style="fill:#D94A56;" width="32" height="32"/>
	<rect x="240" y="416" style="fill:#D94A56;" width="32" height="32"/>
</g>
<path style="fill:#FFBC3D;" d="M416,280v152c0,8.8,7.2,16,16,16l0,0c8.8,0,16-7.2,16-16V280H416z"/>
<path style="fill:#D94A56;" d="M432,448c8.8,0,16-7.2,16-16v-16h-32v16C416,440.8,423.2,448,432,448z"/>
<polygon style="fill:#C7B299;" points="448,280 416,280 432,224 "/>
<rect x="416" y="280" style="fill:#FFD789;" width="32" height="32"/>
<g>
	<rect x="296" y="248" style="fill:#46709C;" width="96" height="16"/>
	<rect x="296" y="312" style="fill:#46709C;" width="96" height="16"/>
	<rect x="296" y="376" style="fill:#46709C;" width="96" height="16"/>
	<rect x="296" y="440" style="fill:#46709C;" width="96" height="16"/>
</g>
<g>
</g>
<g>
</g>
<g>
</g>
<g>
</g>
<g>
</g>
<g>
</g>
<g>
</g>
<g>
</g>
<g>
</g>
<g>
</g>
<g>
</g>
<g>
</g>
<g>
</g>
<g>
</g>
<g>
</g>
</svg>
