<?xml version="1.0" encoding="iso-8859-1"?>
<!-- Generator: Adobe Illustrator 19.0.0, SVG Export Plug-In . SVG Version: 6.00 Build 0)  -->
<svg version="1.1" id="Capa_1" xmlns="http://www.w3.org/2000/svg" xmlns:xlink="http://www.w3.org/1999/xlink" x="0px" y="0px"
	 viewBox="-100 -100 712 712" style="enable-background:new 0 0 512 512;" xml:space="preserve">
<path style="fill:#CFD8DC;" d="M512,96v341.333C512,478.571,478.571,512,437.333,512H74.667C33.429,512,0,478.571,0,437.333V96H512z
	"/>
<path style="fill:#455A64;" d="M512,74.667V96H0V74.667C0,33.429,33.429,0,74.667,0h362.667C478.571,0,512,33.429,512,74.667
	L512,74.667z"/>
<circle style="fill:#F44336;" cx="74.667" cy="53.333" r="10.667"/>
<circle style="fill:#FFC107;" cx="117.333" cy="53.333" r="10.667"/>
<circle style="fill:#4CAF50;" cx="160" cy="53.333" r="10.667"/>
<path d="M380.715,258.475v0.107V258.475z"/>
<path style="fill:#4CAF50;" d="M370.261,307.413c0.256-2.901,0.405-5.803,0.405-8.747c0-2.944-0.149-5.952-0.405-8.939l24.96-19.563
	c6.621-5.496,8.283-14.98,3.925-22.4l-27.733-48.085c-4.445-7.408-13.586-10.527-21.632-7.381l-28.949,11.648
	c-4.813-3.355-9.885-6.322-15.168-8.875l-4.395-31.296c-1.672-8.369-9.002-14.405-17.536-14.443h-55.467
	c-8.753,0.066-16.164,6.474-17.493,15.125l-4.267,30.848c-5.264,2.559-10.327,5.511-15.147,8.832l-29.227-11.733
	c-8.06-3.03-17.131,0.186-21.483,7.616l-27.733,47.787c-4.474,7.579-2.702,17.294,4.16,22.805l24.64,19.2
	c-0.256,2.901-0.405,5.803-0.405,8.747c0,2.944,0.149,5.952,0.405,8.939l-24.981,19.584c-6.602,5.499-8.254,14.969-3.904,22.379
	l27.733,48.085c4.475,7.383,13.595,10.501,21.653,7.403l28.971-11.669c4.812,3.346,9.876,6.313,15.147,8.875l4.416,31.296
	c1.619,8.408,8.953,14.5,17.515,14.549h55.467c8.716-0.162,16.074-6.524,17.493-15.125l4.267-30.869
	c5.264-2.551,10.327-5.496,15.147-8.811l29.205,11.733c8.06,3.02,17.125-0.193,21.483-7.616l27.733-47.765
	c4.495-7.564,2.729-17.284-4.139-22.784L370.261,307.413z M256,341.333c-23.564,0-42.667-19.103-42.667-42.667S232.436,256,256,256
	s42.667,19.103,42.667,42.667S279.564,341.333,256,341.333z"/>
<g>
</g>
<g>
</g>
<g>
</g>
<g>
</g>
<g>
</g>
<g>
</g>
<g>
</g>
<g>
</g>
<g>
</g>
<g>
</g>
<g>
</g>
<g>
</g>
<g>
</g>
<g>
</g>
<g>
</g>
</svg>
